<?xml version="1.0" encoding="UTF-8"?>
<svg width="973px" height="586px" viewBox="0 0 973 586" version="1.1" xmlns="http://www.w3.org/2000/svg" xmlns:xlink="http://www.w3.org/1999/xlink">
    <!-- Generator: Sketch 57.1 (83088) - https://sketch.com -->
    <title>mark copy</title>
    <desc>Created with Sketch.</desc>
    <g id="Page-1" stroke="none" stroke-width="1" fill="none" fill-rule="evenodd">
        <g id="Group-Copy" transform="translate(0.000000, 17.733870)" fill-rule="nonzero">
            <path d="M938.668248,277.961536 C945.645248,278.438536 955.081248,279.538536 960.668248,283.986536 C961.74488,284.65152 966.280248,288.200536 968.225248,290.987536 C974.225248,299.581536 973.983248,310.739536 969.668248,319.986536 C964.088248,330.917536 951.877248,339.191536 939.683248,341.179536 C917.948248,342.098536 886.868248,335.433536 880.907248,310.986536 C879.470248,305.091536 879.919248,299.910536 880.668248,293.986536 C881.021362,293.890647 880.562226,294.096269 880.907248,293.986536 C882.90236,285.5508 890.106686,279.862783 897.668248,277.451536 C910.470248,273.368536 925.607248,277.069536 938.668248,277.961536 Z" id="Path" fill="#4C5D89"></path>
            <path d="M44.6682482,0.411735918 C32.2354482,2.10413592 23.3631529,3.78789434 12.5657529,10.0578943 C9.1922329,12.0168943 4.84577126,15.2132972 1.27164318,20.3121359 C-0.165207078,22.3619415 0.66824818,25.7245359 0.66824818,40.9865359 C0.66824818,56.2485359 0.66824818,315.986536 0.66824818,315.986536 C0.66824818,328.704515 1.13545191,335.854 3.76807124,336.836536 C22.9619394,344 43.4790482,343.239536 49.6682482,342.802536 C59.3645482,342.116536 68.6873482,340.679536 77.6682482,336.836536 C84.9972482,333.699536 91.3230482,329.674536 97.6682482,324.856536 C105.590948,318.839536 113.039048,311.406536 118.422148,302.986536 C135.179248,276.776536 132.668248,242.660536 132.668248,212.986536 C132.968248,133.619203 132.604915,86.6192026 131.578248,71.9865359 C129.450248,41.6497359 116.777348,9.23523592 84.6682482,1.36073592 C79.0254482,-0.0230640821 50.4401482,-0.373964082 44.6682482,0.411735918 Z" id="Path" fill="#146486"></path>
            <path d="M233.342318,105.559536 C225.226057,108.021536 225.668065,117.887536 225.668065,124.986536 L225.668065,181.986536 L225.668065,240.986536 C225.668065,259.588536 225.667106,278.669536 233.242603,295.986536 C239.325244,309.888536 251.049478,321.874536 263.061353,330.238536 C270.142107,335.168536 278.699418,338.806536 287.031409,340.586536 C296.875432,342.688536 307.935216,342.963536 317.713081,340.229536 C344.605567,332.710536 367.370409,309.613536 372.89311,280.986536 C375.761846,266.114536 374.282414,250.098536 374.282414,234.986536 C374.282414,216.086536 376.373562,196.074536 364.923545,179.986536 C355.538789,166.800536 342.936292,162.208536 329.218708,155.612536 C315.342922,148.939536 301.653143,141.864536 287.990211,134.739536 C276.591011,128.795536 265.740246,122.327536 255.390935,114.558536 C248.329356,109.257536 242.903494,102.658536 233.342318,105.559536 Z" id="Path" fill="#018DA8"></path>
            <path d="M463.673248,198.454536 C456.619248,199.848536 455.839248,206.713536 455.683248,212.986536 C455.318248,227.628536 455.598248,242.340536 455.669248,256.986536 C455.893248,303.549536 498.179248,350.998536 547.668248,341.178536 C585.793248,333.613536 614.479248,299.991536 614.667248,260.986536 C614.708248,252.452536 615.666248,239.304536 610.104248,232.119536 C603.075248,223.039536 585.924248,222.354536 575.668248,220.103536 C550.965248,214.678536 526.264248,209.975536 501.668248,204.182536 C489.885248,201.407536 475.906248,196.038536 463.673248,198.454536 Z" id="Path" fill="#9D7B7E"></path>
            <path d="M688.673248,242.469536 C681.843248,243.988536 682.119248,250.223536 681.502248,255.986536 C680.101248,269.071536 681.920248,281.828536 687.128248,293.986536 C700.490248,325.180536 735.507248,348.413536 769.668248,340.332536 C796.493248,333.986536 814.949248,306.990536 806.339248,279.986536 C804.661248,274.725536 802.734248,270.347536 798.664248,266.454536 C787.418248,255.695536 772.361248,253.968536 757.668248,251.855536 C743.986248,249.887536 730.344248,247.508536 716.668248,245.704536 C707.668248,244.517536 697.788248,240.441536 688.673248,242.469536 Z" id="Path" fill="#9D7B7E"></path>
        </g>
        <path d="M347.668248,22.720406 C351.746248,28.898906 361.354248,30.836506 367.668248,34.115506 C382.598248,41.868506 397.038248,50.966606 411.668248,59.288306 C449.127248,80.595406 486.215248,102.987406 522.668248,125.948406 C532.627248,132.222406 542.926248,138.170406 552.668248,144.769406 C559.434248,149.352406 566.163248,155.543406 573.668248,158.720406 C563.789248,144.811406 545.904248,134.855406 532.668248,124.271406 C503.026248,100.568406 472.703248,77.444406 443.758248,52.916406 C433.064248,43.855206 422.293248,34.869306 411.668248,25.720406 C406.896248,21.611706 400.973248,14.829606 394.668248,13.273606 C389.638248,12.032206 382.509248,15.338606 377.668248,16.720406 C368.093248,19.453206 357.601248,21.929906 347.668248,22.720406 Z" id="Path-Copy" fill="#018DA8" fill-rule="nonzero"></path>
        <g id="TaxTracker" transform="translate(1.416000, 420.752000)" fill-rule="nonzero">
            <path d="M66.0365956,161.565263 L50.6494277,161.565263 L50.6494277,24.3630158 L0,24.3630158 L0,10.2581119 L116.686023,10.2581119 L116.686023,24.3630158 L66.0365956,24.3630158 L66.0365956,161.565263 Z M168.190294,111.770678 C164.628431,111.770678 160.17617,111.948768 154.833377,112.304955 C149.490584,112.661141 144.361579,113.515975 139.446209,114.869483 C134.530839,116.22299 130.327905,118.324457 126.83728,121.173947 C123.346655,124.023437 121.601369,127.941427 121.601369,132.928034 C121.601369,136.204947 122.278112,139.018776 123.63162,141.369605 C124.985127,143.720434 126.80165,145.643811 129.081242,147.139793 C131.360834,148.635775 133.889718,149.704318 136.66797,150.345453 C139.446223,150.986588 142.260052,151.307151 145.109542,151.307151 C150.238623,151.307151 154.690884,150.452317 158.466458,148.742623 C162.242032,147.032929 165.412042,144.717753 167.976583,141.797026 C170.541124,138.876299 172.428882,135.456963 173.639916,131.538914 C174.850949,127.620866 175.456456,123.45355 175.456456,119.036841 L175.456456,111.770678 L168.190294,111.770678 Z M175.456456,100.230302 L175.456456,97.665774 C175.456456,80.4263608 166.908115,71.8067835 149.811176,71.8067835 C138.128268,71.8067835 127.941495,75.7247732 119.250551,83.5608701 L110.702125,73.5164688 C120.105441,63.8282036 134.210204,58.9841436 153.016836,58.9841436 C157.860969,58.9841436 162.526938,59.6965054 167.014885,61.1212503 C171.502831,62.5459952 175.385203,64.7186985 178.662116,67.6394256 C181.939029,70.5601526 184.574768,74.2288156 186.569411,78.6455248 C188.564054,83.062234 189.56136,88.333711 189.56136,94.460114 L189.56136,139.125643 C189.56136,142.972454 189.739451,146.997298 190.095637,151.200296 C190.451823,155.403293 190.843622,158.858248 191.271045,161.565263 L177.593563,161.565263 C177.166139,159.143197 176.845577,156.507458 176.631865,153.657968 C176.418153,150.808479 176.311299,148.030268 176.311299,145.323252 L175.883878,145.323252 C171.752117,152.019553 166.872439,156.827995 161.244697,159.748722 C155.616955,162.669449 148.742664,164.129791 140.621618,164.129791 C136.204909,164.129791 131.930738,163.524283 127.798978,162.31325 C123.667218,161.102217 119.998555,159.250077 116.792879,156.756773 C113.587203,154.263469 111.0227,151.200314 109.099295,147.567214 C107.175889,143.934115 106.214201,139.695562 106.214201,134.85143 C106.214201,126.730384 108.315668,120.354746 112.518665,115.724325 C116.721663,111.093904 121.99314,107.63895 128.333254,105.359358 C134.673369,103.079766 141.440806,101.655043 148.635768,101.085145 C155.830729,100.515247 162.420076,100.230302 168.404004,100.230302 L175.456456,100.230302 Z M248.118082,108.137597 L211.787269,61.5486716 L231.021229,61.5486716 L258.803616,98.948038 L285.303738,61.5486716 L302.828013,61.5486716 L267.993174,108.137597 L309.880465,161.565263 L290.646505,161.565263 L257.09393,117.754577 L224.82362,161.565263 L206.871924,161.565263 L248.118082,108.137597 Z" id="Tax" fill="#06232F"></path>
            <path d="M378.90901,161.565263 L363.521842,161.565263 L363.521842,24.3630158 L312.872414,24.3630158 L312.872414,10.2581119 L429.558437,10.2581119 L429.558437,24.3630158 L378.90901,24.3630158 L378.90901,161.565263 Z M429.772148,92.7504287 C429.772148,88.3337196 429.665294,83.8458405 429.451582,79.2866568 C429.23787,74.7274732 429.05978,68.8148705 428.917305,61.5486716 L442.808498,61.5486716 L442.808498,80.1414995 L443.23592,80.1414995 C444.233241,77.4344842 445.657965,74.8343638 447.510133,72.3410602 C449.362301,69.8477566 451.606241,67.6038171 454.242019,65.6091742 C456.877797,63.6145314 459.940953,62.0117174 463.431578,60.8006843 C466.922203,59.5896511 470.87581,58.9841436 475.29252,58.9841436 C479.281805,58.9841436 482.772378,59.4115607 485.764342,60.2664076 L482.986103,74.1576008 C481.133935,73.4452284 478.42696,73.0890475 474.865098,73.0890475 C469.451068,73.0890475 464.820716,74.1219721 460.973905,76.1878522 C457.127094,78.2537323 453.921466,80.8894708 451.356925,84.0951468 C448.792384,87.3008228 446.904626,90.7557773 445.693592,94.460114 C444.482559,98.1644508 443.877052,101.72626 443.877052,105.145647 L443.877052,161.565263 L429.772148,161.565263 L429.772148,92.7504287 Z M556.075151,111.770678 C552.513289,111.770678 548.061028,111.948768 542.718234,112.304955 C537.375441,112.661141 532.246436,113.515975 527.331067,114.869483 C522.415697,116.22299 518.212762,118.324457 514.722137,121.173947 C511.231512,124.023437 509.486226,127.941427 509.486226,132.928034 C509.486226,136.204947 510.16297,139.018776 511.516477,141.369605 C512.869985,143.720434 514.686507,145.643811 516.966099,147.139793 C519.245691,148.635775 521.774575,149.704318 524.552828,150.345453 C527.33108,150.986588 530.144909,151.307151 532.994399,151.307151 C538.123481,151.307151 542.575742,150.452317 546.351316,148.742623 C550.12689,147.032929 553.2969,144.717753 555.86144,141.797026 C558.425981,138.876299 560.31374,135.456963 561.524773,131.538914 C562.735806,127.620866 563.341314,123.45355 563.341314,119.036841 L563.341314,111.770678 L556.075151,111.770678 Z M563.341314,100.230302 L563.341314,97.665774 C563.341314,80.4263608 554.792972,71.8067835 537.696034,71.8067835 C526.013126,71.8067835 515.826353,75.7247732 507.135409,83.5608701 L498.586982,73.5164688 C507.990298,63.8282036 522.095061,58.9841436 540.901694,58.9841436 C545.745826,58.9841436 550.411796,59.6965054 554.899742,61.1212503 C559.387689,62.5459952 563.27006,64.7186985 566.546974,67.6394256 C569.823887,70.5601526 572.459625,74.2288156 574.454268,78.6455248 C576.448911,83.062234 577.446218,88.333711 577.446218,94.460114 L577.446218,139.125643 C577.446218,142.972454 577.624308,146.997298 577.980494,151.200296 C578.33668,155.403293 578.728479,158.858248 579.155903,161.565263 L565.47842,161.565263 C565.050997,159.143197 564.730434,156.507458 564.516722,153.657968 C564.303011,150.808479 564.196156,148.030268 564.196156,145.323252 L563.768735,145.323252 C559.636975,152.019553 554.757297,156.827995 549.129554,159.748722 C543.501812,162.669449 536.627521,164.129791 528.506475,164.129791 C524.089766,164.129791 519.815595,163.524283 515.683835,162.31325 C511.552075,161.102217 507.883412,159.250077 504.677736,156.756773 C501.47206,154.263469 498.907558,151.200314 496.984152,147.567214 C495.060746,143.934115 494.099058,139.695562 494.099058,134.85143 C494.099058,126.730384 496.200525,120.354746 500.403523,115.724325 C504.60652,111.093904 509.877997,107.63895 516.218112,105.359358 C522.558227,103.079766 529.325663,101.655043 536.520625,101.085145 C543.715587,100.515247 550.304933,100.230302 556.288862,100.230302 L563.341314,100.230302 Z M675.8271,85.0568448 C673.405034,81.3525081 670.021316,78.2181163 665.675844,75.6535755 C661.330372,73.0890347 656.379458,71.8067835 650.822952,71.8067835 C644.981498,71.664309 639.745639,72.5903793 635.115219,74.5850222 C630.484798,76.579665 626.53119,79.3578759 623.254277,82.9197381 C619.977363,86.4816004 617.484097,90.7201528 615.774403,95.6355227 C614.06471,100.550893 613.209875,105.857988 613.209875,111.556967 C613.209875,117.255947 614.06471,122.563042 615.774403,127.478412 C617.484097,132.393782 619.977363,136.632334 623.254277,140.194196 C626.53119,143.756059 630.484798,146.53427 635.115219,148.528912 C639.745639,150.523555 644.981498,151.449625 650.822952,151.307151 C656.379458,151.307151 661.330372,150.0249 665.675844,147.460359 C670.021316,144.895818 673.405034,141.761426 675.8271,138.05709 L687.367476,146.819227 C682.380869,152.660681 676.753211,156.97047 670.484334,159.748722 C664.215456,162.526975 657.661728,163.987316 650.822952,164.129791 C642.701907,164.272265 635.36458,163.025632 628.810754,160.389854 C622.256927,157.754076 616.664888,154.085413 612.034467,149.383755 C607.404046,144.682097 603.877855,139.090057 601.455789,132.607468 C599.033722,126.124879 597.822707,119.108115 597.822707,111.556967 C597.822707,104.005819 599.033722,96.989056 601.455789,90.5064667 C603.877855,84.0238775 607.404046,78.4318377 612.034467,73.7301795 C616.664888,69.0285214 622.256927,65.3598583 628.810754,62.7240803 C635.36458,60.0883022 642.701907,58.8416691 650.822952,58.9841436 C657.661728,59.1266181 664.215456,60.5869597 670.484334,63.3652122 C676.753211,66.1434648 682.380869,70.4532534 687.367476,76.2947075 L675.8271,85.0568448 Z M720.065208,106.641622 L767.295265,61.5486716 L788.452621,61.5486716 L738.658036,107.282754 L793.795388,161.565263 L771.9969,161.565263 L720.065208,108.992439 L720.065208,161.565263 L705.960304,161.565263 L705.960304,0 L720.065208,0 L720.065208,106.641622 Z M874.430065,103.863383 C874.430065,94.3175925 871.580618,86.5884674 865.881639,80.6757761 C860.182659,74.7630848 852.204208,71.8067835 841.946044,71.8067835 C837.386861,71.8067835 832.970218,72.6972357 828.695983,74.4781668 C824.421748,76.259098 820.681849,78.6455099 817.476173,81.6374741 C814.270497,84.6294384 811.705995,88.0487749 809.782589,91.8955861 C807.859184,95.7423973 806.897495,99.7316231 806.897495,103.863383 L874.430065,103.863383 Z M806.470074,115.403759 C806.897497,120.390366 808.108512,125.091954 810.103155,129.508663 C812.097798,133.925372 814.733537,137.736508 818.01045,140.942184 C821.287363,144.14786 825.06288,146.676744 829.337115,148.528912 C833.61135,150.381081 838.241701,151.307151 843.228308,151.307151 C850.779456,151.307151 857.297566,149.561865 862.782834,146.07124 C868.268102,142.580615 872.435418,138.555771 875.284908,133.996587 L886.184152,142.972435 C880.200224,150.523583 873.610877,155.937532 866.415916,159.214446 C859.220954,162.491359 851.491829,164.129791 843.228308,164.129791 C835.819635,164.129791 828.945344,162.811922 822.605229,160.176144 C816.265114,157.540366 810.815547,153.871702 806.256363,149.170044 C801.69718,144.468386 798.099753,138.911964 795.463975,132.500612 C792.828197,126.08926 791.510327,119.108115 791.510327,111.556967 C791.510327,104.005819 792.792579,97.0246741 795.357119,90.6133221 C797.92166,84.2019701 801.483469,78.6455483 806.042653,73.9438902 C810.601836,69.242232 815.944549,65.573569 822.070952,62.9377909 C828.197356,60.3020129 834.82232,58.9841436 841.946044,58.9841436 C849.497192,58.9841436 856.264629,60.337631 862.248558,63.0446463 C868.232486,65.7516615 873.254637,69.3490884 877.315159,73.8370348 C881.375682,78.3249813 884.474456,83.5964583 886.611573,89.6516241 C888.748691,95.7067899 889.817233,102.153664 889.817233,108.992439 L889.817233,115.403759 L806.470074,115.403759 Z M916.958488,92.7504287 C916.958488,88.3337196 916.851634,83.8458405 916.637922,79.2866568 C916.42421,74.7274732 916.24612,68.8148705 916.103645,61.5486716 L929.994838,61.5486716 L929.994838,80.1414995 L930.42226,80.1414995 C931.419581,77.4344842 932.844305,74.8343638 934.696473,72.3410602 C936.548641,69.8477566 938.792581,67.6038171 941.428359,65.6091742 C944.064137,63.6145314 947.127293,62.0117174 950.617918,60.8006843 C954.108543,59.5896511 958.06215,58.9841436 962.47886,58.9841436 C966.468145,58.9841436 969.958718,59.4115607 972.950682,60.2664076 L970.172444,74.1576008 C968.320275,73.4452284 965.6133,73.0890475 962.051438,73.0890475 C956.637408,73.0890475 952.007056,74.1219721 948.160245,76.1878522 C944.313434,78.2537323 941.107806,80.8894708 938.543265,84.0951468 C935.978724,87.3008228 934.090966,90.7557773 932.879932,94.460114 C931.668899,98.1644508 931.063392,101.72626 931.063392,105.145647 L931.063392,161.565263 L916.958488,161.565263 L916.958488,92.7504287 Z" id="Tracker" fill="#018DA8"></path>
        </g>
    </g>
</svg>